<svg version="1.1" xmlns="http://www.w3.org/2000/svg" xmlns:xlink="http://www.w3.org/1999/xlink" role="img" width="129" height="90" viewbox="0 0 129 90"><title>DCL</title><desc>Generated by logo.svg, https://github.com/bubkoo/logo.svg</desc><path fill="#2b68a7" d="M-0.34 70.35L0.17 67.66L1 67.66Q3.18 67.66 4.90 66.86Q6.63 66.06 7.27 63.06L13.93 31.70Q14.06 31.25 14.12 30.77Q14.18 30.29 14.18 29.90Q14.18 28.18 12.74 27.76Q11.30 27.34 9.58 27.34L8.74 27.34L9.32 24.66L27.24 24.66Q35.88 24.66 40.65 29.10Q45.42 33.55 45.42 42.06Q45.42 47.76 43.75 52.88Q42.09 58 38.82 61.94Q35.56 65.87 30.79 68.11Q26.02 70.35 19.82 70.35L-0.34 70.35M12.84 67.09L18.41 67.09Q24.68 67.09 29.19 63.79Q33.70 60.50 36.07 54.70Q38.44 48.91 38.44 41.36Q38.44 34.38 35.14 31.12Q31.85 27.86 26.28 27.86L21.22 27.86L12.84 67.09ZM68.39 70.99Q60.07 70.99 55.40 66.51Q50.73 62.03 50.73 53.84Q50.73 48.14 52.58 42.80Q54.44 37.46 57.93 33.23Q61.42 29.01 66.28 26.51Q71.14 24.02 77.10 24.02Q82.73 24.02 85.83 25.97Q88.94 27.92 88.94 31.12Q88.94 33.42 87.18 34.77Q85.42 36.11 82.66 36.11Q82.66 34.38 82.22 32.34Q81.77 30.29 80.39 28.85Q79.02 27.41 76.26 27.41Q72.74 27.41 69.83 29.10Q66.92 30.80 64.65 33.65Q62.38 36.50 60.84 40.08Q59.30 43.66 58.50 47.47Q57.70 51.28 57.70 54.86Q57.70 60.56 60.55 63.70Q63.40 66.83 69.10 66.83Q73.64 66.83 76.46 65.01Q79.27 63.18 80.94 61.01Q81.77 61.65 81.77 63.12Q81.77 64.85 80.39 66.67Q79.02 68.50 76.07 69.74Q73.13 70.99 68.39 70.99ZM86.25 70.35L86.82 67.66L87.66 67.66Q89.77 67.66 91.46 66.86Q93.16 66.06 93.80 63.06L100.46 31.70Q100.71 30.67 100.71 29.90Q100.71 28.24 99.43 27.79Q98.15 27.34 96.10 27.34L95.27 27.34L95.85 24.66L114.47 24.66L113.90 27.34L113.06 27.34Q110.95 27.34 109.26 28.08Q107.56 28.82 106.92 31.70L99.37 67.15L111.98 67.15Q114.92 67.15 116.52 65.30Q118.12 63.44 118.82 61.39L120.49 56.59L123.82 56.59L120.49 70.35L86.25 70.35Z"></path></svg>